Jost-100-Hairline.ufo
<glyph name="one" format="1">
  <advance width="410"/>
  <unicode hex="0031"/>
  <outline>
    <contour>
      <point x="95" y="654" type="line"/>
      <point x="95" y="665" type="line"/>
      <point x="275" y="705" type="line"/>
      <point x="275" y="0" type="line"/>
      <point x="265" y="0" type="line"/>
      <point x="265" y="691" type="line"/>
    </contour>
  </outline>
</glyph>
<glyph name="nine" format="1">
  <advance width="536"/>
  <unicode hex="0039"/>
  <outline>
    <contour>
      <point x="476" y="480" type="curve" smooth="yes"/>
      <point x="476" y="606"/>
      <point x="393" y="700"/>
      <point x="268" y="700" type="curve" smooth="yes"/>
      <point x="143" y="700"/>
      <point x="60" y="606"/>
      <point x="60" y="480" type="curve" smooth="yes"/>
      <point x="60" y="364"/>
      <point x="152" y="273"/>
      <point x="257" y="273" type="curve" smooth="yes"/>
      <point x="397" y="273"/>
      <point x="476" y="374"/>
    </contour>
    <contour>
      <point x="206" y="0" type="line"/>
      <point x="194" y="0" type="line"/>
      <point x="436" y="345" type="line"/>
      <point x="436" y="345" type="line"/>
      <point x="394" y="293"/>
      <point x="332" y="263"/>
      <point x="257" y="263" type="curve" smooth="yes"/>
      <point x="143" y="263"/>
      <point x="50" y="361"/>
      <point x="50" y="480" type="curve" smooth="yes"/>
      <point x="50" y="614"/>
      <point x="133" y="710"/>
      <point x="268" y="710" type="curve" smooth="yes"/>
      <point x="403" y="710"/>
      <point x="486" y="614"/>
      <point x="486" y="480" type="curve" smooth="yes"/>
      <point x="486" y="423"/>
      <point x="457" y="358"/>
      <point x="430" y="321" type="curve" smooth="yes"/>
    </contour>
  </outline>
</glyph>
<glyph name="h" format="1">
  <advance width="475"/>
  <unicode hex="0068"/>
  <outline>
    <contour>
      <point x="95" y="780" type="line"/>
      <point x="95" y="0" type="line"/>
      <point x="85" y="0" type="line"/>
      <point x="85" y="780" type="line"/>
    </contour>
    <contour>
      <point x="380" y="320" type="line" smooth="yes"/>
      <point x="380" y="401"/>
      <point x="347" y="460"/>
      <point x="257" y="460" type="curve" smooth="yes"/>
      <point x="166" y="460"/>
      <point x="95" y="375"/>
      <point x="95" y="280" type="curve"/>
      <point x="90" y="280" type="line"/>
      <point x="90" y="389"/>
      <point x="162" y="470"/>
      <point x="257" y="470" type="curve" smooth="yes"/>
      <point x="352" y="470"/>
      <point x="390" y="409"/>
      <point x="390" y="320" type="curve" smooth="yes"/>
      <point x="390" y="0" type="line"/>
      <point x="380" y="0" type="line"/>
    </contour>
  </outline>
</glyph>
<glyph name="braceright" format="1">
  <advance width="281"/>
  <unicode hex="007D"/>
  <outline>
    <contour>
      <point x="133" y="-60" type="curve" smooth="yes"/>
      <point x="133" y="150" type="line" smooth="yes"/>
      <point x="133" y="239"/>
      <point x="172" y="292"/>
      <point x="201" y="292" type="curve"/>
      <point x="201" y="288" type="line"/>
      <point x="172" y="288"/>
      <point x="133" y="341"/>
      <point x="133" y="430" type="curve" smooth="yes"/>
      <point x="133" y="640" type="line" smooth="yes"/>
      <point x="133" y="736"/>
      <point x="115" y="770"/>
      <point x="50" y="770" type="curve" smooth="yes"/>
      <point x="30" y="770" type="line"/>
      <point x="30" y="780" type="line"/>
      <point x="50" y="780" type="line" smooth="yes"/>
      <point x="124" y="780"/>
      <point x="143" y="739"/>
      <point x="143" y="640" type="curve" smooth="yes"/>
      <point x="143" y="430" type="line" smooth="yes"/>
      <point x="143" y="354"/>
      <point x="171" y="305"/>
      <point x="201" y="295" type="curve"/>
      <point x="201" y="285" type="line"/>
      <point x="171" y="275"/>
      <point x="143" y="226"/>
      <point x="143" y="150" type="curve" smooth="yes"/>
      <point x="143" y="-60" type="line" smooth="yes"/>
      <point x="143" y="-159"/>
      <point x="124" y="-200"/>
      <point x="50" y="-200" type="curve" smooth="yes"/>
      <point x="30" y="-200" type="line"/>
      <point x="30" y="-190" type="line"/>
      <point x="50" y="-190" type="line" smooth="yes"/>
      <point x="115" y="-190"/>
      <point x="133" y="-156"/>
    </contour>
  </outline>
</glyph>
<glyph name="exclamdown" format="1">
  <advance width="300"/>
  <unicode hex="00A1"/>
  <outline>
    <contour>
      <point x="176" y="-245" type="line"/>
      <point x="162" y="-245" type="line"/>
      <point x="166" y="255" type="line"/>
      <point x="172" y="255" type="line"/>
    </contour>
    <contour>
      <point x="180" y="454" type="curve" smooth="yes"/>
      <point x="180" y="447"/>
      <point x="175" y="443"/>
      <point x="169" y="443" type="curve" smooth="yes"/>
      <point x="163" y="443"/>
      <point x="158" y="447"/>
      <point x="158" y="454" type="curve" smooth="yes"/>
      <point x="158" y="461"/>
      <point x="163" y="465"/>
      <point x="169" y="465" type="curve" smooth="yes"/>
      <point x="175" y="465"/>
      <point x="180" y="461"/>
    </contour>
  </outline>
</glyph>
<glyph name="AE" format="1">
  <advance width="896"/>
  <unicode hex="00C6"/>
  <outline>
    <contour>
      <point x="207" y="280" type="line"/>
      <point x="207" y="290" type="line"/>
      <point x="497" y="290" type="line"/>
      <point x="497" y="280" type="line"/>
    </contour>
    <contour>
      <point x="485" y="700" type="line"/>
      <point x="498" y="700" type="line"/>
      <point x="18" y="0" type="line"/>
      <point x="5" y="0" type="line"/>
    </contour>
    <contour>
      <point x="497" y="0" type="line"/>
      <point x="497" y="10" type="line"/>
      <point x="816" y="10" type="line"/>
      <point x="816" y="0" type="line"/>
    </contour>
    <contour>
      <point x="500" y="690" type="line"/>
      <point x="485" y="700" type="line"/>
      <point x="816" y="700" type="line"/>
      <point x="816" y="690" type="line"/>
    </contour>
    <contour>
      <point x="497" y="384" type="line"/>
      <point x="497" y="394" type="line"/>
      <point x="796" y="394" type="line"/>
      <point x="796" y="384" type="line"/>
    </contour>
    <contour>
      <point x="490" y="700" type="line"/>
      <point x="501" y="700" type="line"/>
      <point x="501" y="0" type="line"/>
      <point x="490" y="0" type="line"/>
    </contour>
  </outline>
</glyph>
<glyph name="multiply" format="1">
  <advance width="578"/>
  <unicode hex="00D7"/>
  <outline>
    <contour>
      <point x="88" y="46" type="line"/>
      <point x="81" y="53" type="line"/>
      <point x="283" y="254" type="line"/>
      <point x="80" y="456" type="line"/>
      <point x="87" y="463" type="line"/>
      <point x="289" y="260" type="line"/>
      <point x="491" y="463" type="line"/>
      <point x="498" y="456" type="line"/>
      <point x="295" y="254" type="line"/>
      <point x="497" y="53" type="line"/>
      <point x="490" y="46" type="line"/>
      <point x="289" y="248" type="line"/>
    </contour>
  </outline>
</glyph>
<glyph name="Udieresis" format="1">
  <advance width="576"/>
  <unicode hex="00DC"/>
  <outline>
    <contour>
      <point x="85" y="700" type="line"/>
      <point x="96" y="700" type="line"/>
      <point x="96" y="220" type="line" smooth="yes"/>
      <point x="96" y="84"/>
      <point x="168" y="1"/>
      <point x="288" y="1" type="curve" smooth="yes"/>
      <point x="408" y="1"/>
      <point x="480" y="84"/>
      <point x="480" y="220" type="curve" smooth="yes"/>
      <point x="480" y="700" type="line"/>
      <point x="491" y="700" type="line"/>
      <point x="491" y="220" type="line" smooth="yes"/>
      <point x="491" y="81"/>
      <point x="423" y="-10"/>
      <point x="288" y="-10" type="curve" smooth="yes"/>
      <point x="153" y="-10"/>
      <point x="85" y="81"/>
      <point x="85" y="220" type="curve" smooth="yes"/>
    </contour>
    <contour>
      <point x="367" y="779" type="curve" smooth="yes"/>
      <point x="367" y="786"/>
      <point x="372" y="790"/>
      <point x="378" y="790" type="curve" smooth="yes"/>
      <point x="384" y="790"/>
      <point x="389" y="786"/>
      <point x="389" y="779" type="curve" smooth="yes"/>
      <point x="389" y="772"/>
      <point x="384" y="768"/>
      <point x="378" y="768" type="curve" smooth="yes"/>
      <point x="372" y="768"/>
      <point x="367" y="772"/>
    </contour>
    <contour>
      <point x="187" y="779" type="curve" smooth="yes"/>
      <point x="187" y="786"/>
      <point x="192" y="790"/>
      <point x="198" y="790" type="curve" smooth="yes"/>
      <point x="204" y="790"/>
      <point x="209" y="786"/>
      <point x="209" y="779" type="curve" smooth="yes"/>
      <point x="209" y="772"/>
      <point x="204" y="768"/>
      <point x="198" y="768" type="curve" smooth="yes"/>
      <point x="192" y="768"/>
      <point x="187" y="772"/>
    </contour>
  </outline>
</glyph>
<glyph name="igrave" format="1">
  <advance width="190"/>
  <unicode hex="00EC"/>
  <outline>
    <contour>
      <point x="90" y="460" type="line"/>
      <point x="100" y="460" type="line"/>
      <point x="100" y="0" type="line"/>
      <point x="90" y="0" type="line"/>
    </contour>
    <contour>
      <point x="-60" y="687" type="line"/>
      <point x="-52" y="695" type="line"/>
      <point x="118" y="535" type="line"/>
      <point x="112" y="530" type="line"/>
    </contour>
  </outline>
</glyph>
<glyph name="eth" format="1">
  <advance width="536"/>
  <unicode hex="00F0"/>
  <outline>
    <contour>
      <point x="476" y="220" type="curve" smooth="yes"/>
      <point x="476" y="326"/>
      <point x="397" y="427"/>
      <point x="257" y="427" type="curve" smooth="yes"/>
      <point x="153" y="427"/>
      <point x="60" y="336"/>
      <point x="60" y="220" type="curve" smooth="yes"/>
      <point x="60" y="94"/>
      <point x="143" y="0"/>
      <point x="268" y="0" type="curve" smooth="yes"/>
      <point x="398" y="0"/>
      <point x="476" y="101"/>
    </contour>
    <contour>
      <point x="206" y="700" type="line"/>
      <point x="430" y="379" type="line" smooth="yes"/>
      <point x="457" y="342"/>
      <point x="486" y="277"/>
      <point x="486" y="220" type="curve" smooth="yes"/>
      <point x="486" y="86"/>
      <point x="403" y="-10"/>
      <point x="268" y="-10" type="curve" smooth="yes"/>
      <point x="133" y="-10"/>
      <point x="50" y="86"/>
      <point x="50" y="220" type="curve" smooth="yes"/>
      <point x="50" y="339"/>
      <point x="143" y="437"/>
      <point x="257" y="437" type="curve" smooth="yes"/>
      <point x="332" y="437"/>
      <point x="394" y="407"/>
      <point x="436" y="355" type="curve"/>
      <point x="436" y="355" type="line"/>
      <point x="194" y="700" type="line"/>
    </contour>
    <contour>
      <point x="145" y="575" type="line"/>
      <point x="145" y="585" type="line"/>
      <point x="415" y="585" type="line"/>
      <point x="415" y="575" type="line"/>
    </contour>
  </outline>
</glyph>
<glyph name="ugrave" format="1">
  <advance width="475"/>
  <unicode hex="00F9"/>
  <outline>
    <contour>
      <point x="380" y="0" type="line"/>
      <point x="380" y="460" type="line"/>
      <point x="390" y="460" type="line"/>
      <point x="390" y="0" type="line"/>
    </contour>
    <contour>
      <point x="95" y="150" type="line" smooth="yes"/>
      <point x="95" y="59"/>
      <point x="128" y="0"/>
      <point x="218" y="0" type="curve" smooth="yes"/>
      <point x="309" y="0"/>
      <point x="380" y="85"/>
      <point x="380" y="180" type="curve"/>
      <point x="385" y="180" type="line"/>
      <point x="385" y="71"/>
      <point x="313" y="-10"/>
      <point x="218" y="-10" type="curve" smooth="yes"/>
      <point x="123" y="-10"/>
      <point x="85" y="51"/>
      <point x="85" y="150" type="curve" smooth="yes"/>
      <point x="85" y="460" type="line"/>
      <point x="95" y="460" type="line"/>
    </contour>
    <contour>
      <point x="82" y="697" type="line"/>
      <point x="90" y="705" type="line"/>
      <point x="260" y="545" type="line"/>
      <point x="255" y="540" type="line"/>
    </contour>
  </outline>
</glyph>
<glyph name="udieresis" format="1">
  <advance width="475"/>
  <unicode hex="00FC"/>
  <outline>
    <contour>
      <point x="380" y="0" type="line"/>
      <point x="380" y="460" type="line"/>
      <point x="390" y="460" type="line"/>
      <point x="390" y="0" type="line"/>
    </contour>
    <contour>
      <point x="95" y="150" type="line" smooth="yes"/>
      <point x="95" y="59"/>
      <point x="128" y="0"/>
      <point x="218" y="0" type="curve" smooth="yes"/>
      <point x="309" y="0"/>
      <point x="380" y="85"/>
      <point x="380" y="180" type="curve"/>
      <point x="385" y="180" type="line"/>
      <point x="385" y="71"/>
      <point x="313" y="-10"/>
      <point x="218" y="-10" type="curve" smooth="yes"/>
      <point x="123" y="-10"/>
      <point x="85" y="51"/>
      <point x="85" y="150" type="curve" smooth="yes"/>
      <point x="85" y="460" type="line"/>
      <point x="95" y="460" type="line"/>
    </contour>
    <contour>
      <point x="306" y="561" type="curve" smooth="yes"/>
      <point x="306" y="568"/>
      <point x="312" y="572"/>
      <point x="318" y="572" type="curve" smooth="yes"/>
      <point x="324" y="572"/>
      <point x="328" y="568"/>
      <point x="328" y="561" type="curve" smooth="yes"/>
      <point x="328" y="554"/>
      <point x="324" y="550"/>
      <point x="318" y="550" type="curve" smooth="yes"/>
      <point x="312" y="550"/>
      <point x="306" y="554"/>
    </contour>
    <contour>
      <point x="146" y="561" type="curve" smooth="yes"/>
      <point x="146" y="568"/>
      <point x="152" y="572"/>
      <point x="158" y="572" type="curve" smooth="yes"/>
      <point x="164" y="572"/>
      <point x="168" y="568"/>
      <point x="168" y="561" type="curve" smooth="yes"/>
      <point x="168" y="554"/>
      <point x="164" y="550"/>
      <point x="158" y="550" type="curve" smooth="yes"/>
      <point x="152" y="550"/>
      <point x="146" y="554"/>
    </contour>
  </outline>
</glyph>
<glyph name="ccaron" format="1">
  <advance width="488"/>
  <unicode hex="010D"/>
  <outline>
    <contour>
      <point x="50" y="230" type="curve" smooth="yes"/>
      <point x="50" y="96"/>
      <point x="148" y="0"/>
      <point x="273" y="0" type="curve" smooth="yes"/>
      <point x="347" y="0"/>
      <point x="407" y="37"/>
      <point x="428" y="61" type="curve"/>
      <point x="428" y="48" type="line"/>
      <point x="406" y="23"/>
      <point x="346" y="-10"/>
      <point x="273" y="-10" type="curve" smooth="yes"/>
      <point x="141" y="-10"/>
      <point x="40" y="91"/>
      <point x="40" y="230" type="curve" smooth="yes"/>
      <point x="40" y="369"/>
      <point x="141" y="470"/>
      <point x="273" y="470" type="curve" smooth="yes"/>
      <point x="346" y="470"/>
      <point x="406" y="436"/>
      <point x="428" y="412" type="curve"/>
      <point x="428" y="399" type="line"/>
      <point x="407" y="423"/>
      <point x="347" y="460"/>
      <point x="273" y="460" type="curve" smooth="yes"/>
      <point x="148" y="460"/>
      <point x="50" y="364"/>
    </contour>
    <contour>
      <point x="273" y="562" type="line"/>
      <point x="425" y="698" type="line"/>
      <point x="433" y="690" type="line"/>
      <point x="273" y="550" type="line"/>
      <point x="113" y="690" type="line"/>
      <point x="121" y="698" type="line"/>
    </contour>
  </outline>
</glyph>
<glyph name="gcircumflex" format="1">
  <advance width="541"/>
  <unicode hex="011D"/>
  <outline>
    <contour>
      <point x="456" y="230" type="curve"/>
      <point x="451" y="230" type="line"/>
      <point x="451" y="356"/>
      <point x="358" y="460"/>
      <point x="268" y="460" type="curve" smooth="yes"/>
      <point x="138" y="460"/>
      <point x="55" y="366"/>
      <point x="55" y="230" type="curve"/>
      <point x="45" y="230" type="line"/>
      <point x="45" y="379"/>
      <point x="138" y="470"/>
      <point x="263" y="470" type="curve" smooth="yes"/>
      <point x="358" y="470"/>
      <point x="456" y="379"/>
    </contour>
    <contour>
      <point x="451" y="230" type="curve"/>
      <point x="456" y="230" type="line"/>
      <point x="456" y="81"/>
      <point x="358" y="-10"/>
      <point x="263" y="-10" type="curve" smooth="yes"/>
      <point x="138" y="-10"/>
      <point x="45" y="81"/>
      <point x="45" y="230" type="curve"/>
      <point x="55" y="230" type="line"/>
      <point x="55" y="94"/>
      <point x="138" y="0"/>
      <point x="268" y="0" type="curve" smooth="yes"/>
      <point x="358" y="0"/>
      <point x="451" y="104"/>
    </contour>
    <contour>
      <point x="60" y="-30" type="curve"/>
      <point x="70" y="-30" type="line"/>
      <point x="70" y="-146"/>
      <point x="145" y="-220"/>
      <point x="252" y="-220" type="curve" smooth="yes"/>
      <point x="359" y="-220"/>
      <point x="451" y="-145"/>
      <point x="451" y="10" type="curve" smooth="yes"/>
      <point x="451" y="460" type="line"/>
      <point x="461" y="460" type="line"/>
      <point x="461" y="10" type="line" smooth="yes"/>
      <point x="461" y="-149"/>
      <point x="367" y="-230"/>
      <point x="252" y="-230" type="curve" smooth="yes"/>
      <point x="137" y="-230"/>
      <point x="60" y="-149"/>
    </contour>
    <contour>
      <point x="258" y="665" type="line"/>
      <point x="105" y="530" type="line"/>
      <point x="98" y="537" type="line"/>
      <point x="258" y="677" type="line"/>
      <point x="418" y="537" type="line"/>
      <point x="411" y="530" type="line"/>
    </contour>
  </outline>
</glyph>
<glyph name="Gdotaccent" format="1">
  <advance width="765"/>
  <unicode hex="0120"/>
  <outline>
    <contour>
      <point x="420" y="330" type="line"/>
      <point x="420" y="340" type="line"/>
      <point x="710" y="340" type="line"/>
      <point x="700" y="330" type="line"/>
    </contour>
    <contour>
      <point x="710" y="340" type="line"/>
      <point x="710" y="156"/>
      <point x="584" y="-8"/>
      <point x="390" y="-8" type="curve" smooth="yes"/>
      <point x="196" y="-8"/>
      <point x="50" y="141"/>
      <point x="50" y="350" type="curve" smooth="yes"/>
      <point x="50" y="559"/>
      <point x="196" y="708"/>
      <point x="390" y="708" type="curve" smooth="yes"/>
      <point x="519" y="708"/>
      <point x="608" y="643"/>
      <point x="668" y="556" type="curve"/>
      <point x="658" y="550" type="line"/>
      <point x="608" y="633"/>
      <point x="512" y="697"/>
      <point x="390" y="697" type="curve" smooth="yes"/>
      <point x="199" y="697"/>
      <point x="61" y="553"/>
      <point x="61" y="350" type="curve" smooth="yes"/>
      <point x="61" y="150"/>
      <point x="198" y="3"/>
      <point x="390" y="3" type="curve" smooth="yes"/>
      <point x="578" y="3"/>
      <point x="699" y="161"/>
      <point x="699" y="340" type="curve"/>
    </contour>
    <contour>
      <point x="379" y="779" type="curve" smooth="yes"/>
      <point x="379" y="786"/>
      <point x="384" y="790"/>
      <point x="390" y="790" type="curve" smooth="yes"/>
      <point x="396" y="790"/>
      <point x="401" y="786"/>
      <point x="401" y="779" type="curve" smooth="yes"/>
      <point x="401" y="772"/>
      <point x="396" y="768"/>
      <point x="390" y="768" type="curve" smooth="yes"/>
      <point x="384" y="768"/>
      <point x="379" y="772"/>
    </contour>
  </outline>
</glyph>
<glyph name="Lcaron" format="1">
  <advance width="450"/>
  <unicode hex="013D"/>
  <outline>
    <contour>
      <point x="97" y="0" type="line"/>
      <point x="97" y="10" type="line"/>
      <point x="410" y="10" type="line"/>
      <point x="410" y="0" type="line"/>
    </contour>
    <contour>
      <point x="90" y="700" type="line"/>
      <point x="100" y="700" type="line"/>
      <point x="100" y="0" type="line"/>
      <point x="90" y="0" type="line"/>
    </contour>
    <contour>
      <point x="345" y="694" type="line"/>
      <point x="356" y="689" type="line"/>
      <point x="246" y="439" type="line"/>
      <point x="240" y="441" type="line"/>
    </contour>
  </outline>
</glyph>
<glyph name="lcaron" format="1">
  <advance width="230"/>
  <unicode hex="013E"/>
  <outline>
    <contour>
      <point x="85" y="780" type="line"/>
      <point x="95" y="780" type="line"/>
      <point x="95" y="0" type="line"/>
      <point x="85" y="0" type="line"/>
    </contour>
    <contour>
      <point x="320" y="764" type="line"/>
      <point x="331" y="759" type="line"/>
      <point x="221" y="509" type="line"/>
      <point x="215" y="511" type="line"/>
    </contour>
  </outline>
</glyph>
<glyph name="Ldot" format="1">
  <advance width="430"/>
  <unicode hex="013F"/>
  <outline>
    <contour>
      <point x="97" y="0" type="line"/>
      <point x="97" y="10" type="line"/>
      <point x="410" y="10" type="line"/>
      <point x="410" y="0" type="line"/>
    </contour>
    <contour>
      <point x="90" y="700" type="line"/>
      <point x="100" y="700" type="line"/>
      <point x="100" y="0" type="line"/>
      <point x="90" y="0" type="line"/>
    </contour>
    <contour>
      <point x="280" y="396" type="curve" smooth="yes"/>
      <point x="280" y="403"/>
      <point x="285" y="407"/>
      <point x="291" y="407" type="curve" smooth="yes"/>
      <point x="297" y="407"/>
      <point x="302" y="403"/>
      <point x="302" y="396" type="curve" smooth="yes"/>
      <point x="302" y="389"/>
      <point x="297" y="385"/>
      <point x="291" y="385" type="curve" smooth="yes"/>
      <point x="285" y="385"/>
      <point x="280" y="389"/>
    </contour>
  </outline>
</glyph>
<glyph name="tcaron" format="1">
  <advance width="280"/>
  <unicode hex="0165"/>
  <outline>
    <contour>
      <point x="15" y="460" type="line"/>
      <point x="175" y="460" type="line"/>
      <point x="175" y="450" type="line"/>
      <point x="15" y="450" type="line"/>
    </contour>
    <contour>
      <point x="90" y="620" type="line"/>
      <point x="100" y="620" type="line"/>
      <point x="100" y="0" type="line"/>
      <point x="90" y="0" type="line"/>
    </contour>
    <contour>
      <point x="274" y="775" type="line"/>
      <point x="285" y="770" type="line"/>
      <point x="175" y="520" type="line"/>
      <point x="169" y="522" type="line"/>
    </contour>
  </outline>
</glyph>
<glyph name="Utilde" format="1">
  <advance width="576"/>
  <unicode hex="0168"/>
  <outline>
    <contour>
      <point x="85" y="700" type="line"/>
      <point x="96" y="700" type="line"/>
      <point x="96" y="220" type="line" smooth="yes"/>
      <point x="96" y="84"/>
      <point x="168" y="1"/>
      <point x="288" y="1" type="curve" smooth="yes"/>
      <point x="408" y="1"/>
      <point x="480" y="84"/>
      <point x="480" y="220" type="curve" smooth="yes"/>
      <point x="480" y="700" type="line"/>
      <point x="491" y="700" type="line"/>
      <point x="491" y="220" type="line" smooth="yes"/>
      <point x="491" y="81"/>
      <point x="423" y="-10"/>
      <point x="288" y="-10" type="curve" smooth="yes"/>
      <point x="153" y="-10"/>
      <point x="85" y="81"/>
      <point x="85" y="220" type="curve" smooth="yes"/>
    </contour>
    <contour>
      <point x="162.5" y="769" type="line"/>
      <point x="162.5" y="798"/>
      <point x="179.5" y="827"/>
      <point x="224.5" y="827" type="curve" smooth="yes"/>
      <point x="279.5" y="827"/>
      <point x="294.5" y="780"/>
      <point x="348.5" y="780" type="curve" smooth="yes"/>
      <point x="377.5" y="780"/>
      <point x="389.5" y="796"/>
      <point x="404.5" y="828" type="curve"/>
      <point x="413.5" y="825" type="line"/>
      <point x="397.5" y="788"/>
      <point x="377.5" y="772"/>
      <point x="347.5" y="772" type="curve" smooth="yes"/>
      <point x="292.5" y="772"/>
      <point x="271.5" y="819"/>
      <point x="226.5" y="819" type="curve" smooth="yes"/>
      <point x="185.5" y="819"/>
      <point x="171.5" y="793"/>
      <point x="171.5" y="768" type="curve"/>
    </contour>
  </outline>
</glyph>
<glyph name="ubreve" format="1">
  <advance width="475"/>
  <unicode hex="016D"/>
  <outline>
    <contour>
      <point x="380" y="0" type="line"/>
      <point x="380" y="460" type="line"/>
      <point x="390" y="460" type="line"/>
      <point x="390" y="0" type="line"/>
    </contour>
    <contour>
      <point x="95" y="150" type="line" smooth="yes"/>
      <point x="95" y="59"/>
      <point x="128" y="0"/>
      <point x="218" y="0" type="curve" smooth="yes"/>
      <point x="309" y="0"/>
      <point x="380" y="85"/>
      <point x="380" y="180" type="curve"/>
      <point x="385" y="180" type="line"/>
      <point x="385" y="71"/>
      <point x="313" y="-10"/>
      <point x="218" y="-10" type="curve" smooth="yes"/>
      <point x="123" y="-10"/>
      <point x="85" y="51"/>
      <point x="85" y="150" type="curve" smooth="yes"/>
      <point x="85" y="460" type="line"/>
      <point x="95" y="460" type="line"/>
    </contour>
    <contour>
      <point x="79.5" y="670" type="curve"/>
      <point x="89.5" y="670" type="line"/>
      <point x="89.5" y="604"/>
      <point x="145.5" y="540"/>
      <point x="237.5" y="540" type="curve" smooth="yes"/>
      <point x="329.5" y="540"/>
      <point x="385.5" y="604"/>
      <point x="385.5" y="670" type="curve"/>
      <point x="395.5" y="670" type="line"/>
      <point x="395.5" y="601"/>
      <point x="342.5" y="530"/>
      <point x="237.5" y="530" type="curve" smooth="yes"/>
      <point x="132.5" y="530"/>
      <point x="79.5" y="601"/>
    </contour>
  </outline>
</glyph>
<glyph name="Wcircumflex" format="1">
  <advance width="950"/>
  <unicode hex="0174"/>
  <outline>
    <contour>
      <point x="695" y="26" type="line"/>
      <point x="919" y="700" type="line"/>
      <point x="930" y="700" type="line"/>
      <point x="695" y="-15" type="line"/>
      <point x="475" y="677" type="line"/>
      <point x="255" y="-15" type="line"/>
      <point x="20" y="700" type="line"/>
      <point x="31" y="700" type="line"/>
      <point x="255" y="26" type="line"/>
      <point x="475" y="715" type="line"/>
    </contour>
    <contour>
      <point x="475" y="910" type="line"/>
      <point x="322" y="775" type="line"/>
      <point x="315" y="782" type="line"/>
      <point x="475" y="922" type="line"/>
      <point x="635" y="782" type="line"/>
      <point x="628" y="775" type="line"/>
    </contour>
  </outline>
</glyph>
<glyph name="tilde" format="1">
  <advance width="530"/>
  <unicode hex="02DC"/>
  <outline>
    <contour>
      <point x="142" y="649" type="line"/>
      <point x="142" y="678"/>
      <point x="159" y="707"/>
      <point x="204" y="707" type="curve" smooth="yes"/>
      <point x="259" y="707"/>
      <point x="274" y="660"/>
      <point x="328" y="660" type="curve" smooth="yes"/>
      <point x="357" y="660"/>
      <point x="369" y="676"/>
      <point x="384" y="708" type="curve"/>
      <point x="393" y="705" type="line"/>
      <point x="377" y="668"/>
      <point x="357" y="652"/>
      <point x="327" y="652" type="curve" smooth="yes"/>
      <point x="272" y="652"/>
      <point x="251" y="699"/>
      <point x="206" y="699" type="curve" smooth="yes"/>
      <point x="165" y="699"/>
      <point x="151" y="673"/>
      <point x="151" y="648" type="curve"/>
    </contour>
  </outline>
</glyph>
<glyph name="uni0400" format="1">
  <advance width="550"/>
  <unicode hex="0400"/>
  <outline>
    <contour>
      <point x="92" y="0" type="line"/>
      <point x="92" y="10" type="line"/>
      <point x="430" y="10" type="line"/>
      <point x="430" y="0" type="line"/>
    </contour>
    <contour>
      <point x="92" y="690" type="line"/>
      <point x="92" y="700" type="line"/>
      <point x="430" y="700" type="line"/>
      <point x="430" y="690" type="line"/>
    </contour>
    <contour>
      <point x="92" y="384" type="line"/>
      <point x="92" y="394" type="line"/>
      <point x="410" y="394" type="line"/>
      <point x="410" y="384" type="line"/>
    </contour>
    <contour>
      <point x="90" y="700" type="line"/>
      <point x="101" y="700" type="line"/>
      <point x="101" y="0" type="line"/>
      <point x="90" y="0" type="line"/>
    </contour>
    <contour>
      <point x="125" y="952" type="line"/>
      <point x="133" y="960" type="line"/>
      <point x="303" y="800" type="line"/>
      <point x="298" y="795" type="line"/>
    </contour>
  </outline>
</glyph>
<glyph name="uni040D" format="1">
  <advance width="725"/>
  <unicode hex="040D"/>
  <outline>
    <contour>
      <point x="635" y="717" type="line"/>
      <point x="90" y="-35" type="line"/>
      <point x="90" y="-17" type="line"/>
      <point x="635" y="735" type="line"/>
    </contour>
    <contour>
      <point x="100" y="700" type="line"/>
      <point x="100" y="-13" type="line"/>
      <point x="90" y="-35" type="line"/>
      <point x="90" y="700" type="line"/>
    </contour>
    <contour>
      <point x="635" y="735" type="line"/>
      <point x="635" y="0" type="line"/>
      <point x="625" y="0" type="line"/>
      <point x="625" y="715" type="line"/>
    </contour>
    <contour>
      <point x="190" y="927" type="line"/>
      <point x="198" y="935" type="line"/>
      <point x="368" y="775" type="line"/>
      <point x="363" y="770" type="line"/>
    </contour>
  </outline>
</glyph>
<glyph name="uni040E" format="1">
  <advance width="480"/>
  <unicode hex="040E"/>
  <outline>
    <contour>
      <point x="480" y="700" type="line"/>
      <point x="151" y="0" type="line"/>
      <point x="141" y="0" type="line"/>
      <point x="246" y="224" type="line"/>
      <point x="0" y="700" type="line"/>
      <point x="10" y="700" type="line"/>
      <point x="253" y="230" type="line"/>
      <point x="249" y="230" type="line"/>
      <point x="470" y="700" type="line"/>
    </contour>
    <contour>
      <point x="82" y="908" type="curve"/>
      <point x="92" y="908" type="line"/>
      <point x="92" y="842"/>
      <point x="148" y="778"/>
      <point x="240" y="778" type="curve" smooth="yes"/>
      <point x="332" y="778"/>
      <point x="388" y="842"/>
      <point x="388" y="908" type="curve"/>
      <point x="398" y="908" type="line"/>
      <point x="398" y="839"/>
      <point x="345" y="768"/>
      <point x="240" y="768" type="curve" smooth="yes"/>
      <point x="135" y="768"/>
      <point x="82" y="839"/>
    </contour>
  </outline>
</glyph>
<glyph name="uni0410" format="1">
  <advance width="660"/>
  <unicode hex="0410"/>
  <outline>
    <contour>
      <point x="129" y="272" type="line"/>
      <point x="129" y="282" type="line"/>
      <point x="472" y="282" type="line"/>
      <point x="472" y="272" type="line"/>
    </contour>
    <contour>
      <point x="300" y="688" type="line"/>
      <point x="136" y="277" type="line"/>
      <point x="135" y="273" type="line"/>
      <point x="27" y="0" type="line"/>
      <point x="15" y="0" type="line"/>
      <point x="300" y="715" type="line"/>
      <point x="585" y="0" type="line"/>
      <point x="573" y="0" type="line"/>
      <point x="466" y="273" type="line"/>
      <point x="465" y="276" type="line"/>
    </contour>
  </outline>
</glyph>
<glyph name="uni0416" format="1">
  <advance width="640"/>
  <unicode hex="0416"/>
  <outline>
    <contour>
      <point x="35" y="700" type="line"/>
      <point x="322" y="370" type="line"/>
      <point x="20" y="0" type="line"/>
      <point x="5" y="0" type="line"/>
      <point x="309" y="370" type="line"/>
      <point x="20" y="700" type="line"/>
    </contour>
    <contour>
      <point x="320" y="700" type="line"/>
      <point x="330" y="700" type="line"/>
      <point x="330" y="0" type="line"/>
      <point x="320" y="0" type="line"/>
    </contour>
    <contour>
      <point x="605" y="700" type="line"/>
      <point x="620" y="700" type="line"/>
      <point x="341" y="370" type="line"/>
      <point x="635" y="0" type="line"/>
      <point x="620" y="0" type="line"/>
      <point x="328" y="370" type="line"/>
    </contour>
  </outline>
</glyph>
<glyph name="uni0417" format="1">
  <advance width="606"/>
  <unicode hex="0417"/>
  <outline>
    <contour>
      <point x="283" y="360" type="curve"/>
      <point x="283" y="367" type="line"/>
      <point x="425" y="367"/>
      <point x="531" y="428"/>
      <point x="531" y="524" type="curve" smooth="yes"/>
      <point x="531" y="620"/>
      <point x="447" y="700"/>
      <point x="317" y="700" type="curve" smooth="yes"/>
      <point x="185" y="700"/>
      <point x="100" y="627"/>
      <point x="100" y="526" type="curve"/>
      <point x="90" y="526" type="line"/>
      <point x="90" y="635"/>
      <point x="182" y="710"/>
      <point x="317" y="710" type="curve" smooth="yes"/>
      <point x="457" y="710"/>
      <point x="541" y="623"/>
      <point x="541" y="524" type="curve" smooth="yes"/>
      <point x="541" y="425"/>
      <point x="438" y="360"/>
    </contour>
    <contour>
      <point x="313" y="-10" type="curve" smooth="yes"/>
      <point x="148" y="-10"/>
      <point x="60" y="76"/>
      <point x="60" y="185" type="curve"/>
      <point x="70" y="185" type="line"/>
      <point x="70" y="79"/>
      <point x="158" y="0"/>
      <point x="313" y="0" type="curve" smooth="yes"/>
      <point x="463" y="0"/>
      <point x="551" y="76"/>
      <point x="551" y="185" type="curve" smooth="yes"/>
      <point x="551" y="320"/>
      <point x="425" y="357"/>
      <point x="283" y="357" type="curve"/>
      <point x="283" y="365" type="line"/>
      <point x="438" y="365"/>
      <point x="561" y="324"/>
      <point x="561" y="185" type="curve" smooth="yes"/>
      <point x="561" y="66"/>
      <point x="468" y="-10"/>
    </contour>
  </outline>
</glyph>
<glyph name="uni0419" format="1">
  <advance width="725"/>
  <unicode hex="0419"/>
  <outline>
    <contour>
      <point x="635" y="717" type="line"/>
      <point x="90" y="-35" type="line"/>
      <point x="90" y="-17" type="line"/>
      <point x="635" y="735" type="line"/>
    </contour>
    <contour>
      <point x="100" y="700" type="line"/>
      <point x="100" y="-13" type="line"/>
      <point x="90" y="-35" type="line"/>
      <point x="90" y="700" type="line"/>
    </contour>
    <contour>
      <point x="635" y="735" type="line"/>
      <point x="635" y="0" type="line"/>
      <point x="625" y="0" type="line"/>
      <point x="625" y="715" type="line"/>
    </contour>
    <contour>
      <point x="215" y="900" type="curve"/>
      <point x="225" y="900" type="line"/>
      <point x="225" y="834"/>
      <point x="281" y="770"/>
      <point x="373" y="770" type="curve" smooth="yes"/>
      <point x="465" y="770"/>
      <point x="521" y="834"/>
      <point x="521" y="900" type="curve"/>
      <point x="531" y="900" type="line"/>
      <point x="531" y="831"/>
      <point x="478" y="760"/>
      <point x="373" y="760" type="curve" smooth="yes"/>
      <point x="268" y="760"/>
      <point x="215" y="831"/>
    </contour>
  </outline>
</glyph>
<glyph name="uni041F" format="1">
  <advance width="640"/>
  <unicode hex="041F"/>
  <outline>
    <contour>
      <point x="550" y="690" type="line"/>
      <point x="90" y="690" type="line"/>
      <point x="90" y="0" type="line"/>
      <point x="80" y="0" type="line"/>
      <point x="80" y="700" type="line"/>
      <point x="560" y="700" type="line"/>
      <point x="560" y="0" type="line"/>
      <point x="550" y="0" type="line"/>
    </contour>
  </outline>
</glyph>
<glyph name="uni042A" format="1">
  <advance width="616"/>
  <unicode hex="042A"/>
  <outline>
    <contour>
      <point x="195" y="410" type="line"/>
      <point x="195" y="420" type="line"/>
      <point x="338" y="420" type="line" smooth="yes"/>
      <point x="473" y="420"/>
      <point x="576" y="339"/>
      <point x="576" y="210" type="curve" smooth="yes"/>
      <point x="576" y="81"/>
      <point x="473" y="0"/>
      <point x="338" y="0" type="curve" smooth="yes"/>
      <point x="195" y="0" type="line"/>
      <point x="195" y="10" type="line"/>
      <point x="338" y="10" type="line" smooth="yes"/>
      <point x="468" y="10"/>
      <point x="566" y="89"/>
      <point x="566" y="210" type="curve" smooth="yes"/>
      <point x="566" y="331"/>
      <point x="468" y="410"/>
      <point x="338" y="410" type="curve" smooth="yes"/>
    </contour>
    <contour>
      <point x="190" y="690" type="line"/>
      <point x="10" y="690" type="line"/>
      <point x="10" y="700" type="line"/>
      <point x="200" y="700" type="line"/>
      <point x="200" y="0" type="line"/>
      <point x="190" y="0" type="line"/>
    </contour>
  </outline>
</glyph>
<glyph name="uni042F" format="1">
  <advance width="468"/>
  <unicode hex="042F"/>
  <outline>
    <contour>
      <point x="269" y="317" type="line"/>
      <point x="49" y="0" type="line"/>
      <point x="35" y="0" type="line"/>
      <point x="257" y="317" type="line"/>
    </contour>
    <contour>
      <point x="378" y="700" type="line"/>
      <point x="378" y="0" type="line"/>
      <point x="367" y="0" type="line"/>
      <point x="367" y="700" type="line"/>
    </contour>
    <contour>
      <point x="376" y="689" type="line"/>
      <point x="263" y="689" type="line" smooth="yes"/>
      <point x="132" y="689"/>
      <point x="38" y="630"/>
      <point x="38" y="507" type="curve" smooth="yes"/>
      <point x="38" y="384"/>
      <point x="131" y="324"/>
      <point x="263" y="324" type="curve" smooth="yes"/>
      <point x="376" y="324" type="line"/>
      <point x="376" y="314" type="line"/>
      <point x="263" y="314" type="line" smooth="yes"/>
      <point x="128" y="314"/>
      <point x="27" y="378"/>
      <point x="27" y="507" type="curve" smooth="yes"/>
      <point x="27" y="636"/>
      <point x="128" y="700"/>
      <point x="263" y="700" type="curve" smooth="yes"/>
      <point x="376" y="700" type="line"/>
    </contour>
  </outline>
</glyph>
<glyph name="uni0432" format="1">
  <advance width="411"/>
  <unicode hex="0432"/>
  <outline>
    <contour>
      <point x="80" y="231" type="line"/>
      <point x="213" y="231" type="line" smooth="yes"/>
      <point x="308" y="231"/>
      <point x="381" y="214"/>
      <point x="381" y="125" type="curve" smooth="yes"/>
      <point x="381" y="56"/>
      <point x="338" y="0"/>
      <point x="233" y="0" type="curve" smooth="yes"/>
      <point x="80" y="0" type="line"/>
      <point x="80" y="10" type="line"/>
      <point x="233" y="10" type="line" smooth="yes"/>
      <point x="333" y="10"/>
      <point x="371" y="63"/>
      <point x="371" y="125" type="curve" smooth="yes"/>
      <point x="371" y="221"/>
      <point x="273" y="225"/>
      <point x="213" y="225" type="curve" smooth="yes"/>
      <point x="80" y="225" type="line"/>
    </contour>
    <contour>
      <point x="80" y="229" type="line"/>
      <point x="80" y="235" type="line"/>
      <point x="203" y="235" type="line" smooth="yes"/>
      <point x="251" y="235"/>
      <point x="351" y="249"/>
      <point x="351" y="335" type="curve" smooth="yes"/>
      <point x="351" y="413"/>
      <point x="285" y="450"/>
      <point x="203" y="450" type="curve" smooth="yes"/>
      <point x="80" y="450" type="line"/>
      <point x="80" y="460" type="line"/>
      <point x="203" y="460" type="line" smooth="yes"/>
      <point x="288" y="460"/>
      <point x="361" y="424"/>
      <point x="361" y="335" type="curve" smooth="yes"/>
      <point x="361" y="256"/>
      <point x="288" y="229"/>
      <point x="203" y="229" type="curve" smooth="yes"/>
    </contour>
    <contour>
      <point x="75" y="460" type="line"/>
      <point x="85" y="460" type="line"/>
      <point x="85" y="0" type="line"/>
      <point x="75" y="0" type="line"/>
    </contour>
  </outline>
</glyph>
<glyph name="uni0436" format="1">
  <advance width="454"/>
  <unicode hex="0436"/>
  <outline>
    <contour>
      <point x="411" y="460" type="line"/>
      <point x="424" y="460" type="line"/>
      <point x="243" y="269" type="line"/>
      <point x="444" y="0" type="line"/>
      <point x="431" y="0" type="line"/>
      <point x="230" y="270" type="line"/>
    </contour>
    <contour>
      <point x="232" y="460" type="line"/>
      <point x="232" y="0" type="line"/>
      <point x="222" y="0" type="line"/>
      <point x="222" y="460" type="line"/>
    </contour>
    <contour>
      <point x="43" y="460" type="line"/>
      <point x="224" y="270" type="line"/>
      <point x="23" y="0" type="line"/>
      <point x="10" y="0" type="line"/>
      <point x="211" y="269" type="line"/>
      <point x="30" y="460" type="line"/>
    </contour>
  </outline>
</glyph>
<glyph name="uni0437" format="1">
  <advance width="476"/>
  <unicode hex="0437"/>
  <outline>
    <contour>
      <point x="243" y="244" type="curve"/>
      <point x="243" y="250" type="line"/>
      <point x="303" y="250"/>
      <point x="401" y="258"/>
      <point x="401" y="334" type="curve" smooth="yes"/>
      <point x="401" y="393"/>
      <point x="343" y="460"/>
      <point x="247" y="460" type="curve" smooth="yes"/>
      <point x="168" y="460"/>
      <point x="100" y="400"/>
      <point x="100" y="326" type="curve"/>
      <point x="90" y="326" type="line"/>
      <point x="90" y="405"/>
      <point x="162" y="470"/>
      <point x="247" y="470" type="curve" smooth="yes"/>
      <point x="347" y="470"/>
      <point x="411" y="403"/>
      <point x="411" y="334" type="curve" smooth="yes"/>
      <point x="411" y="265"/>
      <point x="348" y="244"/>
    </contour>
    <contour>
      <point x="248" y="-10" type="curve" smooth="yes"/>
      <point x="143" y="-10"/>
      <point x="70" y="56"/>
      <point x="60" y="145" type="curve"/>
      <point x="70" y="145" type="line"/>
      <point x="81" y="63"/>
      <point x="148" y="0"/>
      <point x="248" y="0" type="curve" smooth="yes"/>
      <point x="328" y="0"/>
      <point x="421" y="49"/>
      <point x="421" y="135" type="curve" smooth="yes"/>
      <point x="421" y="221"/>
      <point x="313" y="240"/>
      <point x="243" y="240" type="curve"/>
      <point x="243" y="246" type="line"/>
      <point x="348" y="246"/>
      <point x="431" y="214"/>
      <point x="431" y="135" type="curve" smooth="yes"/>
      <point x="431" y="46"/>
      <point x="343" y="-10"/>
    </contour>
  </outline>
</glyph>
<glyph name="uni043C" format="1">
  <advance width="607"/>
  <unicode hex="043C"/>
  <outline>
    <contour>
      <point x="590" y="0" type="line"/>
      <point x="480" y="454" type="line"/>
      <point x="482" y="495" type="line"/>
      <point x="602" y="0" type="line"/>
    </contour>
    <contour>
      <point x="302" y="9" type="line"/>
      <point x="482" y="495" type="line"/>
      <point x="480" y="454" type="line"/>
      <point x="302" y="-31" type="line"/>
    </contour>
    <contour>
      <point x="302" y="-31" type="line"/>
      <point x="127" y="454" type="line"/>
      <point x="125" y="495" type="line"/>
      <point x="302" y="9" type="line"/>
    </contour>
    <contour>
      <point x="5" y="0" type="line"/>
      <point x="125" y="495" type="line"/>
      <point x="127" y="454" type="line"/>
      <point x="19" y="0" type="line"/>
    </contour>
  </outline>
</glyph>
<glyph name="uni043F" format="1">
  <advance width="455"/>
  <unicode hex="043F"/>
  <outline>
    <contour>
      <point x="380" y="460" type="line"/>
      <point x="380" y="0" type="line"/>
      <point x="370" y="0" type="line"/>
      <point x="370" y="450" type="line"/>
      <point x="85" y="450" type="line"/>
      <point x="85" y="0" type="line"/>
      <point x="75" y="0" type="line"/>
      <point x="75" y="460" type="line"/>
    </contour>
  </outline>
</glyph>
<glyph name="uni0442" format="1">
  <advance width="280"/>
  <unicode hex="0442"/>
  <outline>
    <contour>
      <point x="5" y="460" type="line"/>
      <point x="275" y="460" type="line"/>
      <point x="275" y="450" type="line"/>
      <point x="5" y="450" type="line"/>
    </contour>
    <contour>
      <point x="135" y="455" type="line"/>
      <point x="145" y="455" type="line"/>
      <point x="145" y="0" type="line"/>
      <point x="135" y="0" type="line"/>
    </contour>
  </outline>
</glyph>
<glyph name="uni0447" format="1">
  <advance width="415"/>
  <unicode hex="0447"/>
  <outline>
    <contour>
      <point x="230" y="140" type="line"/>
      <point x="230" y="150" type="line"/>
      <point x="337" y="150" type="line"/>
      <point x="337" y="140" type="line"/>
    </contour>
    <contour>
      <point x="330" y="460" type="line"/>
      <point x="340" y="460" type="line"/>
      <point x="340" y="0" type="line"/>
      <point x="330" y="0" type="line"/>
    </contour>
    <contour>
      <point x="60" y="460" type="line"/>
      <point x="60" y="328" type="line" smooth="yes"/>
      <point x="60" y="193"/>
      <point x="104" y="150"/>
      <point x="230" y="150" type="curve"/>
      <point x="230" y="140" type="line"/>
      <point x="91" y="140"/>
      <point x="50" y="193"/>
      <point x="50" y="328" type="curve" smooth="yes"/>
      <point x="50" y="460" type="line"/>
    </contour>
  </outline>
</glyph>
<glyph name="uni044E" format="1">
  <advance width="756"/>
  <unicode hex="044E"/>
  <outline>
    <contour>
      <point x="82" y="235" type="line"/>
      <point x="82" y="245" type="line"/>
      <point x="252" y="245" type="line"/>
      <point x="252" y="235" type="line"/>
    </contour>
    <contour>
      <point x="75" y="460" type="line"/>
      <point x="85" y="460" type="line"/>
      <point x="85" y="0" type="line"/>
      <point x="75" y="0" type="line"/>
    </contour>
    <contour>
      <point x="245" y="230" type="curve" smooth="yes"/>
      <point x="245" y="369"/>
      <point x="346" y="470"/>
      <point x="478" y="470" type="curve" smooth="yes"/>
      <point x="610" y="470"/>
      <point x="711" y="369"/>
      <point x="711" y="230" type="curve" smooth="yes"/>
      <point x="711" y="91"/>
      <point x="610" y="-10"/>
      <point x="478" y="-10" type="curve" smooth="yes"/>
      <point x="346" y="-10"/>
      <point x="245" y="91"/>
    </contour>
    <contour>
      <point x="255" y="230" type="curve" smooth="yes"/>
      <point x="255" y="96"/>
      <point x="353" y="0"/>
      <point x="478" y="0" type="curve" smooth="yes"/>
      <point x="603" y="0"/>
      <point x="701" y="96"/>
      <point x="701" y="230" type="curve" smooth="yes"/>
      <point x="701" y="364"/>
      <point x="603" y="460"/>
      <point x="478" y="460" type="curve" smooth="yes"/>
      <point x="353" y="460"/>
      <point x="255" y="364"/>
    </contour>
  </outline>
</glyph>
<glyph name="uni0453" format="1">
  <advance width="300"/>
  <unicode hex="0453"/>
  <outline>
    <contour>
      <point x="80" y="460" type="line"/>
      <point x="295" y="460" type="line"/>
      <point x="295" y="450" type="line"/>
      <point x="90" y="450" type="line"/>
      <point x="90" y="0" type="line"/>
      <point x="80" y="0" type="line"/>
    </contour>
    <contour>
      <point x="303" y="687" type="line"/>
      <point x="130" y="530" type="line"/>
      <point x="125" y="535" type="line"/>
      <point x="295" y="695" type="line"/>
    </contour>
  </outline>
</glyph>
<glyph name="uni045D" format="1">
  <advance width="475"/>
  <unicode hex="045D"/>
  <outline>
    <contour>
      <point x="390" y="467" type="line"/>
      <point x="80" y="-35" type="line"/>
      <point x="85" y="-7" type="line"/>
      <point x="395" y="495" type="line"/>
    </contour>
    <contour>
      <point x="90" y="460" type="line"/>
      <point x="90" y="-15" type="line"/>
      <point x="80" y="-35" type="line"/>
      <point x="80" y="460" type="line"/>
    </contour>
    <contour>
      <point x="395" y="495" type="line"/>
      <point x="395" y="0" type="line"/>
      <point x="385" y="0" type="line"/>
      <point x="385" y="475" type="line"/>
    </contour>
    <contour>
      <point x="79.5" y="712" type="line"/>
      <point x="87.5" y="720" type="line"/>
      <point x="257.5" y="560" type="line"/>
      <point x="252.5" y="555" type="line"/>
    </contour>
  </outline>
</glyph>
<glyph name="uni045E" format="1">
  <advance width="440"/>
  <unicode hex="045E"/>
  <outline>
    <contour>
      <point x="415" y="460" type="line"/>
      <point x="115" y="-220" type="line"/>
      <point x="104" y="-220" type="line"/>
      <point x="210" y="20" type="line"/>
      <point x="10" y="460" type="line"/>
      <point x="22" y="460" type="line"/>
      <point x="221" y="20" type="line"/>
      <point x="210" y="20" type="line"/>
      <point x="404" y="460" type="line"/>
    </contour>
    <contour>
      <point x="62" y="670" type="curve"/>
      <point x="72" y="670" type="line"/>
      <point x="72" y="604"/>
      <point x="128" y="540"/>
      <point x="220" y="540" type="curve" smooth="yes"/>
      <point x="312" y="540"/>
      <point x="368" y="604"/>
      <point x="368" y="670" type="curve"/>
      <point x="378" y="670" type="line"/>
      <point x="378" y="601"/>
      <point x="325" y="530"/>
      <point x="220" y="530" type="curve" smooth="yes"/>
      <point x="115" y="530"/>
      <point x="62" y="601"/>
    </contour>
  </outline>
</glyph>
<glyph name="uni1E9E" format="1">
  <advance width="666"/>
  <unicode hex="1E9E"/>
  <outline>
    <contour>
      <point x="388" y="-10" type="curve" smooth="yes"/>
      <point x="273" y="-10"/>
      <point x="185" y="76"/>
      <point x="185" y="185" type="curve"/>
      <point x="195" y="185" type="line"/>
      <point x="195" y="81"/>
      <point x="278" y="0"/>
      <point x="388" y="0" type="curve" smooth="yes"/>
      <point x="498" y="0"/>
      <point x="576" y="82"/>
      <point x="576" y="185" type="curve" smooth="yes"/>
      <point x="576" y="300"/>
      <point x="475" y="358"/>
      <point x="348" y="358" type="curve"/>
      <point x="348" y="366" type="line"/>
      <point x="483" y="366"/>
      <point x="586" y="304"/>
      <point x="586" y="185" type="curve" smooth="yes"/>
      <point x="586" y="76"/>
      <point x="503" y="-10"/>
    </contour>
    <contour>
      <point x="348" y="362" type="curve"/>
      <point x="348" y="370" type="line"/>
      <point x="475" y="370"/>
      <point x="556" y="433"/>
      <point x="556" y="534" type="curve" smooth="yes"/>
      <point x="556" y="640"/>
      <point x="457" y="700"/>
      <point x="352" y="700" type="curve" smooth="yes"/>
      <point x="184" y="700"/>
      <point x="90" y="587"/>
      <point x="90" y="416" type="curve" smooth="yes"/>
      <point x="90" y="0" type="line"/>
      <point x="80" y="0" type="line"/>
      <point x="80" y="416" type="line" smooth="yes"/>
      <point x="80" y="595"/>
      <point x="177" y="710"/>
      <point x="352" y="710" type="curve" smooth="yes"/>
      <point x="462" y="710"/>
      <point x="566" y="648"/>
      <point x="566" y="534" type="curve" smooth="yes"/>
      <point x="566" y="425"/>
      <point x="483" y="362"/>
    </contour>
  </outline>
</glyph>
<glyph name="bullet" format="1">
  <advance width="300"/>
  <unicode hex="2022"/>
  <outline>
    <contour>
      <point x="119" y="376" type="curve" smooth="yes"/>
      <point x="119" y="383"/>
      <point x="124" y="387"/>
      <point x="130" y="387" type="curve" smooth="yes"/>
      <point x="136" y="387"/>
      <point x="141" y="383"/>
      <point x="141" y="376" type="curve" smooth="yes"/>
      <point x="141" y="369"/>
      <point x="136" y="365"/>
      <point x="130" y="365" type="curve" smooth="yes"/>
      <point x="124" y="365"/>
      <point x="119" y="369"/>
    </contour>
  </outline>
</glyph>
<glyph name="uni2080" format="1">
  <advance width="334"/>
  <unicode hex="2080"/>
  <outline>
    <contour>
      <point x="42" y="210" type="curve" smooth="yes"/>
      <point x="42" y="98"/>
      <point x="88" y="0"/>
      <point x="167" y="0" type="curve" smooth="yes"/>
      <point x="246" y="0"/>
      <point x="292" y="98"/>
      <point x="292" y="210" type="curve" smooth="yes"/>
      <point x="292" y="322"/>
      <point x="246" y="420"/>
      <point x="167" y="420" type="curve" smooth="yes"/>
      <point x="88" y="420"/>
      <point x="42" y="322"/>
    </contour>
    <contour>
      <point x="35" y="210" type="curve" smooth="yes"/>
      <point x="35" y="329"/>
      <point x="84" y="426"/>
      <point x="167" y="426" type="curve" smooth="yes"/>
      <point x="250" y="426"/>
      <point x="299" y="329"/>
      <point x="299" y="210" type="curve" smooth="yes"/>
      <point x="299" y="91"/>
      <point x="250" y="-6"/>
      <point x="167" y="-6" type="curve" smooth="yes"/>
      <point x="84" y="-6"/>
      <point x="35" y="91"/>
    </contour>
  </outline>
</glyph>
<glyph name="uni2156" format="1">
  <advance width="871"/>
  <unicode hex="2156"/>
  <outline>
    <contour>
      <point x="748" y="700" type="line"/>
      <point x="760" y="700" type="line"/>
      <point x="187" y="0" type="line"/>
      <point x="175" y="0" type="line"/>
    </contour>
    <contour>
      <point x="33" y="282" type="line"/>
      <point x="225" y="483" type="line" smooth="yes"/>
      <point x="254" y="514"/>
      <point x="282" y="544"/>
      <point x="282" y="594" type="curve" smooth="yes"/>
      <point x="282" y="641"/>
      <point x="253" y="703"/>
      <point x="175" y="703" type="curve" smooth="yes"/>
      <point x="103" y="703"/>
      <point x="57" y="643"/>
      <point x="57" y="558" type="curve"/>
      <point x="51" y="558" type="line"/>
      <point x="51" y="647"/>
      <point x="100" y="709"/>
      <point x="175" y="709" type="curve" smooth="yes"/>
      <point x="255" y="709"/>
      <point x="288" y="644"/>
      <point x="288" y="594" type="curve" smooth="yes"/>
      <point x="288" y="545"/>
      <point x="260" y="510"/>
      <point x="230" y="479" type="curve" smooth="yes"/>
      <point x="48" y="288" type="line"/>
      <point x="305" y="288" type="line"/>
      <point x="305" y="282" type="line"/>
    </contour>
    <contour>
      <point x="810" y="136" type="curve" smooth="yes"/>
      <point x="810" y="41"/>
      <point x="750" y="-8"/>
      <point x="675" y="-8" type="curve" smooth="yes"/>
      <point x="610" y="-8"/>
      <point x="572" y="26"/>
      <point x="550" y="80" type="curve"/>
      <point x="555" y="83" type="line"/>
      <point x="577" y="30"/>
      <point x="612" y="-2"/>
      <point x="675" y="-2" type="curve" smooth="yes"/>
      <point x="747" y="-2"/>
      <point x="804" y="45"/>
      <point x="804" y="136" type="curve" smooth="yes"/>
      <point x="804" y="209"/>
      <point x="754" y="260"/>
      <point x="691" y="260" type="curve" smooth="yes"/>
      <point x="639" y="260"/>
      <point x="599" y="236"/>
      <point x="568" y="194" type="curve"/>
      <point x="578" y="213" type="line"/>
      <point x="596" y="240"/>
      <point x="638" y="266"/>
      <point x="691" y="266" type="curve" smooth="yes"/>
      <point x="757" y="266"/>
      <point x="810" y="213"/>
    </contour>
    <contour>
      <point x="627" y="412" type="line"/>
      <point x="578" y="213" type="line"/>
      <point x="568" y="194" type="line"/>
      <point x="623" y="418" type="line"/>
      <point x="821" y="418" type="line"/>
      <point x="821" y="412" type="line"/>
    </contour>
  </outline>
</glyph>
<glyph name="threeeighths" format="1">
  <advance width="847"/>
  <unicode hex="215C"/>
  <outline>
    <contour>
      <point x="708" y="700" type="line"/>
      <point x="720" y="700" type="line"/>
      <point x="147" y="0" type="line"/>
      <point x="135" y="0" type="line"/>
    </contour>
    <contour>
      <point x="145" y="497" type="curve"/>
      <point x="145" y="502" type="line"/>
      <point x="199" y="502"/>
      <point x="270" y="538"/>
      <point x="270" y="600" type="curve" smooth="yes"/>
      <point x="270" y="650"/>
      <point x="233" y="700"/>
      <point x="166" y="700" type="curve" smooth="yes"/>
      <point x="101" y="700"/>
      <point x="59" y="657"/>
      <point x="59" y="596" type="curve"/>
      <point x="53" y="596" type="line"/>
      <point x="53" y="661"/>
      <point x="97" y="706"/>
      <point x="166" y="706" type="curve" smooth="yes"/>
      <point x="238" y="706"/>
      <point x="276" y="653"/>
      <point x="276" y="600" type="curve" smooth="yes"/>
      <point x="276" y="535"/>
      <point x="208" y="497"/>
    </contour>
    <contour>
      <point x="163" y="274" type="curve" smooth="yes"/>
      <point x="82" y="274"/>
      <point x="35" y="326"/>
      <point x="35" y="391" type="curve"/>
      <point x="41" y="391" type="line"/>
      <point x="41" y="327"/>
      <point x="85" y="280"/>
      <point x="163" y="280" type="curve" smooth="yes"/>
      <point x="235" y="280"/>
      <point x="282" y="324"/>
      <point x="282" y="385" type="curve" smooth="yes"/>
      <point x="282" y="460"/>
      <point x="199" y="496"/>
      <point x="145" y="496" type="curve"/>
      <point x="145" y="501" type="line"/>
      <point x="208" y="501"/>
      <point x="288" y="462"/>
      <point x="288" y="385" type="curve" smooth="yes"/>
      <point x="288" y="320"/>
      <point x="238" y="274"/>
    </contour>
    <contour>
      <point x="572" y="325" type="curve" smooth="yes"/>
      <point x="572" y="378"/>
      <point x="616" y="426"/>
      <point x="676" y="426" type="curve" smooth="yes"/>
      <point x="736" y="426"/>
      <point x="780" y="378"/>
      <point x="780" y="325" type="curve" smooth="yes"/>
      <point x="780" y="266"/>
      <point x="727" y="221"/>
      <point x="676" y="221" type="curve" smooth="yes"/>
      <point x="625" y="221"/>
      <point x="572" y="266"/>
    </contour>
    <contour>
      <point x="578" y="325" type="curve" smooth="yes"/>
      <point x="578" y="267"/>
      <point x="634" y="225"/>
      <point x="676" y="225" type="curve" smooth="yes"/>
      <point x="718" y="225"/>
      <point x="774" y="267"/>
      <point x="774" y="325" type="curve" smooth="yes"/>
      <point x="774" y="377"/>
      <point x="733" y="420"/>
      <point x="676" y="420" type="curve" smooth="yes"/>
      <point x="619" y="420"/>
      <point x="578" y="377"/>
    </contour>
    <contour>
      <point x="560" y="111" type="curve" smooth="yes"/>
      <point x="560" y="176"/>
      <point x="616" y="223"/>
      <point x="676" y="223" type="curve" smooth="yes"/>
      <point x="736" y="223"/>
      <point x="792" y="176"/>
      <point x="792" y="111" type="curve" smooth="yes"/>
      <point x="792" y="46"/>
      <point x="751" y="-6"/>
      <point x="676" y="-6" type="curve" smooth="yes"/>
      <point x="601" y="-6"/>
      <point x="560" y="46"/>
    </contour>
    <contour>
      <point x="566" y="111" type="curve" smooth="yes"/>
      <point x="566" y="47"/>
      <point x="607" y="0"/>
      <point x="676" y="0" type="curve" smooth="yes"/>
      <point x="745" y="0"/>
      <point x="786" y="47"/>
      <point x="786" y="111" type="curve" smooth="yes"/>
      <point x="786" y="175"/>
      <point x="730" y="219"/>
      <point x="676" y="219" type="curve" smooth="yes"/>
      <point x="622" y="219"/>
      <point x="566" y="175"/>
    </contour>
  </outline>
</glyph>
